<svg width="20" height="20" viewBox="0 0 20 20" xmlns="http://www.w3.org/2000/svg">
    <path d="M18.893 0c.304 0 .564.11.78.326.218.217.327.477.327.78v17.787c0 .304-.11.564-.326.78-.217.218-.477.327-.78.327H13.8v-7.747h2.59l.392-3.02h-2.982V7.304c0-.486.102-.85.306-1.094.204-.242.6-.364 1.19-.364l1.59-.013V3.138c-.547-.078-1.32-.117-2.318-.117-1.18 0-2.124.348-2.832 1.042-.707.695-1.06 1.676-1.06 2.943v2.227H8.072v3.02h2.604V20h-9.57c-.304 0-.564-.11-.78-.326-.218-.217-.327-.477-.327-.78V1.106C0 .803.11.543.326.327.543.108.803 0 1.106 0h17.787z" fill="#fff" fill-rule="evenodd"/>
</svg>
