<svg width="20" height="12" viewBox="50 4 20 12" xmlns="http://www.w3.org/2000/svg">
    <path d="M69.97 5.12c.158.444-.362 1.464-1.563 3.06-.167.223-.392.518-.677.885-.54.695-.853 1.15-.937 1.364-.118.284-.07.565.146.843.117.145.398.43.842.853h.01l.01.01.012.01.02.022c.98.91 1.642 1.676 1.99 2.3.02.036.042.08.067.13.025.053.05.145.074.277.024.132.022.25-.006.354-.027.103-.114.198-.26.285-.146.087-.35.13-.614.13l-2.665.042c-.168.035-.362.017-.584-.052-.223-.07-.403-.146-.542-.23l-.208-.124c-.208-.145-.45-.367-.73-.665-.277-.3-.514-.568-.712-.807-.198-.24-.41-.44-.635-.604-.227-.163-.423-.217-.59-.16-.02.006-.048.018-.083.035-.034.016-.093.067-.177.15-.083.083-.158.186-.224.307-.065.122-.124.302-.176.54-.053.24-.075.51-.068.808 0 .104-.012.2-.037.287-.024.086-.05.15-.078.192l-.04.052c-.126.132-.31.21-.553.23h-1.197c-.493.027-1-.03-1.52-.172-.52-.143-.977-.327-1.37-.552-.392-.226-.75-.455-1.072-.687-.323-.233-.567-.432-.734-.6l-.26-.25c-.07-.068-.164-.172-.285-.31-.122-.14-.37-.456-.745-.95-.375-.49-.743-1.015-1.103-1.57-.36-.556-.787-1.288-1.276-2.197-.488-.91-.94-1.854-1.358-2.832-.04-.11-.062-.205-.062-.28 0-.078.01-.133.03-.168l.043-.063c.104-.13.302-.197.593-.197l2.853-.02c.082.013.162.035.238.067.077.03.132.06.167.088l.052.03c.11.078.194.19.25.334.14.347.298.707.48 1.078.18.37.322.654.426.848l.166.302c.2.417.395.778.582 1.083.188.306.356.543.505.713.15.17.294.305.432.402.138.097.256.146.353.146.098 0 .19-.017.28-.052.015-.007.033-.024.054-.052.02-.028.062-.104.124-.23.064-.124.11-.287.142-.49.03-.2.064-.48.1-.842.034-.36.034-.795 0-1.3-.015-.28-.046-.532-.095-.76-.048-.23-.097-.39-.146-.48l-.06-.125c-.175-.236-.47-.385-.886-.448-.09-.015-.073-.098.052-.25.118-.133.25-.237.396-.313.368-.18 1.197-.264 2.488-.25.57.007 1.038.052 1.406.135.138.035.255.082.348.14.094.06.165.143.214.25.048.108.085.22.11.334.023.115.035.272.035.474 0 .2-.003.392-.01.572l-.026.734c-.01.31-.016.596-.016.86 0 .076-.002.22-.01.437-.006.215-.008.38-.004.5.003.117.015.258.036.42.02.164.06.3.12.407.06.108.137.193.234.255l.177.042c.063.014.153-.025.27-.115.12-.09.25-.21.397-.36.145-.148.326-.38.54-.697.216-.315.452-.688.71-1.12.415-.72.787-1.5 1.113-2.34.028-.07.062-.13.104-.183.042-.053.08-.09.115-.11l.04-.03.053-.027c.02-.01.066-.02.136-.03.07-.012.14-.013.21-.006l2.997-.022c.27-.035.493-.026.667.026.173.052.28.11.322.17l.063.106z" fill="#fff" fill-rule="evenodd"/>
</svg>
