<svg width="21" height="20" viewBox="100 0 21 20" xmlns="http://www.w3.org/2000/svg">
    <path d="M117.734 16.9V8.465h-1.757c.173.546.26 1.115.26 1.705 0 1.093-.278 2.102-.833 3.027-.556.924-1.31 1.655-2.266 2.194-.955.54-1.997.808-3.125.808-1.71 0-3.173-.588-4.388-1.764-1.215-1.177-1.823-2.598-1.823-4.265 0-.59.087-1.16.26-1.706h-1.835V16.9c0 .227.076.416.227.567.152.152.34.228.567.228h13.92c.217 0 .404-.076.56-.228.156-.15.234-.34.234-.566zm-3.698-6.94c0-1.075-.392-1.993-1.178-2.753-.786-.76-1.734-1.14-2.845-1.14-1.102 0-2.046.38-2.832 1.14-.785.76-1.177 1.678-1.177 2.754 0 1.077.392 1.995 1.178 2.755.787.76 1.73 1.14 2.833 1.14 1.11 0 2.06-.38 2.845-1.14.786-.76 1.178-1.678 1.178-2.754zm3.698-4.687V3.125c0-.243-.086-.454-.26-.632-.174-.177-.386-.266-.638-.266h-2.266c-.25 0-.464.09-.638.266-.173.178-.26.39-.26.632v2.148c0 .252.087.465.26.638.174.175.387.262.638.262h2.266c.252 0 .464-.087.638-.26.174-.174.26-.387.26-.64zM120 2.565v14.87c0 .703-.252 1.306-.755 1.81-.504.503-1.107.755-1.81.755h-14.87c-.703 0-1.306-.252-1.81-.755-.503-.504-.755-1.107-.755-1.81V2.565c0-.703.252-1.306.755-1.81.504-.503 1.107-.755 1.81-.755h14.87c.703 0 1.306.252 1.81.755.503.504.755 1.107.755 1.81z" fill="#fff" fill-rule="evenodd"/>
</svg>
